<svg width="124" height="43" viewBox="0 0 124 43" fill="none" xmlns="http://www.w3.org/2000/svg"><g clip-path="url(#a)" fill="#5016FF"><path d="M2.472 21.302c.412-.343.764-.741 1.124-1.165-.36-.422-.712-.822-1.124-1.165C1.75 18.37.938 18.09.24 18.184a21.272 21.272 0 0 0-.227 3.862c.748.197 1.656-.076 2.46-.744zm19.406 13.923a7.37 7.37 0 0 1-.297.012 4.8 4.8 0 0 0 .233.463c.038-.154.059-.313.064-.475zm-1.969 3c.237-.204.477-.412.7-.627.344-.335.726-.78.981-1.295a5.425 5.425 0 0 1-.55-1.06 13.97 13.97 0 0 1-2.278-.201 2.942 2.942 0 0 1-.485.965c.243.643.584 1.25.932 1.59.222.217.462.426.7.628zm7.773-29.107c.018-.164.029-.34.03-.519-.11.115-.209.242-.293.38l.263.139zm-1.004-3.732c-.283.134-.568.272-.839.424-.42.234-.904.566-1.284.996.132.399.222.799.257 1.164.742.204 1.46.469 2.147.787.178-.301.42-.571.719-.81-.068-.682-.24-1.358-.488-1.775a13.756 13.756 0 0 0-.512-.786zM23.5 7.677c.093-.337.256-.66.484-.966-.242-.642-.584-1.25-.932-1.59a14.552 14.552 0 0 0-.7-.626c-.237.203-.476.412-.7.627-.343.335-.725.78-.98 1.293.23.352.422.716.55 1.06a13.96 13.96 0 0 1 2.277.202zm.499.095c.096.02.193.042.289.064a4.932 4.932 0 0 0-.106-.505c-.075.14-.138.287-.183.44zm-9.325-1.436a14.382 14.382 0 0 0-.92-.193c-.105.295-.208.594-.292.893-.13.46-.239 1.038-.204 1.61.377.19.725.41 1.01.645.659-.377 1.35-.7 2.07-.966a2.96 2.96 0 0 1-.063-1.078c-.53-.434-1.13-.791-1.601-.911zm-.872 3.233a4.96 4.96 0 0 0-.437-.287c.046.154.107.303.184.447l.253-.16zm6.58-2.075c.1-.005.198-.009.297-.011a4.828 4.828 0 0 0-.233-.463 2.396 2.396 0 0 0-.064.474zm-.505.036c.003-.349.078-.703.218-1.059-.4-.557-.887-1.058-1.31-1.295a15.33 15.33 0 0 0-.84-.423c-.177.257-.355.52-.514.786-.246.413-.499.942-.612 1.504.313.28.592.581.804.878.73-.188 1.482-.321 2.253-.39zm-3.059.63c.093-.031.187-.061.282-.09a4.594 4.594 0 0 0-.344-.384c.006.157.025.316.062.474zm16.168 2.087c-.48-.008-1.066.038-1.61.222-.085.414-.21.809-.362 1.144a14.027 14.027 0 0 1 1.466 1.748c.306-.172.65-.287 1.031-.343.283-.625.473-1.297.466-1.782-.004-.31-.026-.627-.051-.938-.313-.025-.63-.047-.94-.05zM9.276 32.472c.48.01 1.066-.036 1.61-.22.085-.414.209-.81.361-1.145a14.049 14.049 0 0 1-1.466-1.75 2.96 2.96 0 0 1-1.03.343c-.282.625-.473 1.298-.466 1.784.004.31.026.626.05.938.314.025.63.047.94.05zm22.481-1.456a2.28 2.28 0 0 0-.294-.386c-.067.075-.135.149-.204.222.155.061.322.116.498.164zm1.168-16.982c.099-.134.194-.28.287-.437a2.37 2.37 0 0 0-.447.184c.054.084.108.168.16.252zM31.257 34.2c.31-.004.627-.026.938-.05.025-.312.047-.629.051-.939.006-.48-.038-1.064-.222-1.607a5.442 5.442 0 0 1-1.145-.363 13.925 13.925 0 0 1-1.75 1.465c.173.306.287.651.344 1.032.627.281 1.298.47 1.784.462zm2.258-6.556c-.045.089-.09.176-.138.265.164.018.339.029.519.03a2.262 2.262 0 0 0-.38-.295zM30.79 10.736a2.273 2.273 0 0 0-.386.294c.075.067.149.135.222.204.061-.154.116-.322.164-.498zm-.769-.036c.25-.247.555-.446.909-.599.112-.677.12-1.376-.012-1.842a14.815 14.815 0 0 0-.292-.893c-.308.058-.62.118-.92.193-.467.118-1.02.313-1.498.63.024.422.008.833-.053 1.196.658.387 1.282.827 1.866 1.314zm5.456 9.975a2.297 2.297 0 0 0-.476-.064c.005.1.01.198.012.297.151-.065.308-.143.464-.233zm1.841-1.662c.151-.271.29-.557.424-.84-.257-.176-.52-.354-.786-.513-.413-.246-.942-.499-1.505-.612-.28.313-.581.592-.879.804.19.73.322 1.481.393 2.253.349.003.703.078 1.06.218.556-.4 1.056-.887 1.293-1.31zm-.965-5.028a14.803 14.803 0 0 0-.893-.292c-.463-.13-1.04-.238-1.612-.202-.19.377-.41.725-.644 1.007.377.66.7 1.351.966 2.07a2.987 2.987 0 0 1 1.081-.066c.434-.53.79-1.128.909-1.597.075-.301.135-.613.193-.92zm-1.928 3.347c.13-.103.258-.218.385-.344a2.264 2.264 0 0 0-.475.061c.031.094.061.188.09.283zm.299 6.895l-.064.29c.161-.026.33-.06.504-.106a2.38 2.38 0 0 0-.44-.184zM7.26 22.108c-.005-.099-.008-.198-.011-.297a4.827 4.827 0 0 0-.463.234c.154.036.313.058.475.063zm11.003 12.84a23.06 23.06 0 0 1-.29-.064c.025.162.06.331.106.505.076-.14.137-.287.184-.441zm2.346-11.877c0-1.045-.489-1.756-1.466-2.133.793-.387 1.19-1.059 1.19-2.016 0-.987-.43-1.732-1.292-2.235-.697-.415-1.577-.624-2.642-.624-1.161 0-2.115.26-2.86.783-.85.6-1.276 1.455-1.276 2.568h2.729c.087-.726.526-1.088 1.32-1.088s1.19.305 1.19.915c0 .697-.601 1.045-1.8 1.045v1.785c1.249 0 1.873.377 1.873 1.132 0 .367-.13.658-.391.87-.26.212-.579.32-.956.32-.965 0-1.447-.504-1.447-1.51h-2.838c0 1.219.393 2.162 1.176 2.83.735.63 1.722.944 2.96.944 1.307 0 2.357-.266 3.151-.799.919-.619 1.379-1.548 1.379-2.787zm-5.025 14.263c.282-.135.568-.273.839-.424.42-.234.904-.567 1.284-.997a5.46 5.46 0 0 1-.257-1.163 13.924 13.924 0 0 1-2.147-.787c-.178.301-.42.57-.72.81.069.682.24 1.36.49 1.776.156.265.333.526.51.785zM5.91 28.735c.294.104.593.207.892.291.462.132 1.04.239 1.612.204.19-.377.41-.725.644-1.007-.377-.66-.7-1.351-.966-2.07a2.79 2.79 0 0 1-.697.085c-.124 0-.252-.01-.38-.024-.435.53-.793 1.132-.912 1.602-.077.3-.138.611-.194.919zm16.475 6.454c-.004.35-.078.703-.219 1.06.4.557.888 1.057 1.311 1.294.271.151.557.29.84.424.177-.257.354-.52.513-.786.247-.413.5-.942.613-1.505a5.539 5.539 0 0 1-.804-.878c-.73.189-1.482.32-2.254.391zM12.24 32.02c-.25.247-.555.446-.908.598-.112.678-.121 1.376.012 1.843.085.298.188.598.292.892.307-.057.619-.117.92-.193.467-.117 1.02-.312 1.497-.63a5.475 5.475 0 0 1 .054-1.195 13.95 13.95 0 0 1-1.866-1.315zm13.203 2.54a9.794 9.794 0 0 1-.283.09c.103.129.218.258.344.384a2.264 2.264 0 0 0-.061-.474zM39.56 19.296c-.498-.23-.955-.53-1.396-.832-.128.266-.258.534-.404.795-.242.434-.696.907-1.221 1.315a5.6 5.6 0 0 1 1.199.956c.209.213.404.439.597.663.348-.407.712-.814 1.134-1.165.878-.73 1.887-1.046 2.76-.878a23.492 23.492 0 0 0-.043-.608c-.29.099-.603.15-.933.15-.542 0-1.12-.132-1.693-.396zM27.588 36.382c.301.076.613.137.92.193.104-.294.207-.594.292-.892.13-.463.238-1.04.203-1.612a5.43 5.43 0 0 1-1.007-.643c-.66.376-1.352.7-2.071.965.086.337.107.7.063 1.079.529.435 1.13.792 1.6.91zM12.787 8.985c-.614-.28-1.274-.467-1.757-.467h-.026c-.31.004-.627.026-.939.051a14.77 14.77 0 0 0-.05.938c-.007.48.039 1.066.221 1.61.415.085.81.209 1.144.361a14.043 14.043 0 0 1 1.75-1.465 2.946 2.946 0 0 1-.343-1.028zm15.672 24.166c.133.1.28.196.436.287a2.428 2.428 0 0 0-.183-.448l-.253.161zm-13.879.451a5.065 5.065 0 0 0-.03.519 2.33 2.33 0 0 0 .293-.38l-.263-.139zM7.927 25.67a10.189 10.189 0 0 1-.09-.282 4.842 4.842 0 0 0-.386.344c.159-.004.318-.024.476-.062zM4.26 20.138c.204.237.412.477.627.7.335.344.781.726 1.294.981.352-.23.716-.422 1.06-.55a13.96 13.96 0 0 1 .202-2.277 2.95 2.95 0 0 1-.967-.486c-.642.242-1.25.585-1.587.933-.218.221-.427.46-.629.7zm3.342-1.936c-.163.024-.334.06-.508.106.14.077.288.14.443.186l.065-.292zm26.635 12.94c.299-.084.599-.187.893-.291a14.356 14.356 0 0 0-.193-.92c-.117-.466-.313-1.02-.63-1.496-.123.007-.246.01-.367.01-.292 0-.572-.022-.829-.065a13.72 13.72 0 0 1-1.315 1.867c.247.25.446.555.599.908.676.111 1.374.12 1.842-.013zM4.943 23.707c-.15.27-.289.556-.423.839.256.177.52.354.786.513.413.246.942.5 1.504.613.28-.313.58-.592.878-.804a13.94 13.94 0 0 1-.392-2.253 2.965 2.965 0 0 1-1.06-.219c-.556.4-1.056.886-1.293 1.31zm4.554 5.231a13.478 13.478 0 0 1-.16-.252c-.1.133-.194.28-.287.437a2.3 2.3 0 0 0 .447-.185zm1.505-17.07a4.857 4.857 0 0 0-.498-.164c.084.138.183.267.295.386.067-.076.134-.149.203-.222zm-2.978-.291c-.298.085-.598.188-.892.292.057.308.117.619.192.92.118.466.313 1.019.631 1.497a5.479 5.479 0 0 1 1.195.053 13.77 13.77 0 0 1 1.315-1.865 2.945 2.945 0 0 1-.598-.908c-.678-.112-1.375-.122-1.843.011zm.722 3.499l.138-.265a5.035 5.035 0 0 0-.518-.03c.114.11.242.209.38.295zm-3.594.738c.134.283.272.568.423.84.235.419.567.903.999 1.284a5.556 5.556 0 0 1 1.162-.258c.205-.743.47-1.46.789-2.147a2.98 2.98 0 0 1-.81-.72c-.682.068-1.36.24-1.776.488-.267.159-.53.336-.787.513zm6.705 15.874a10.506 10.506 0 0 1-.221-.203 4.853 4.853 0 0 0-.164.5c.136-.085.265-.183.385-.297zm-.007-26.51c.504.185 1.025.291 1.571.391.187-.523.356-1.028.447-1.555.16-.928-.002-1.768-.433-2.327a21.164 21.164 0 0 0-3.458 1.74c.207.743.896 1.39 1.874 1.751zm1.854 33.168c.447-.315.934-.562 1.417-.794a13.886 13.886 0 0 1-.485-.748c-.256-.427-.437-1.056-.528-1.715a5.596 5.596 0 0 1-1.428.56c-.29.073-.583.131-.872.186.178.504.348 1.023.442 1.562.194 1.125-.037 2.155-.617 2.828.181.09.364.18.548.267.153-.787.693-1.559 1.523-2.146z"/><path d="M2.701 23.424c.497.23.956.53 1.397.831.128-.265.259-.534.405-.794.242-.434.695-.907 1.22-1.315a5.607 5.607 0 0 1-1.198-.956c-.209-.214-.404-.44-.597-.663-.348.406-.712.814-1.134 1.164-.725.604-1.538.924-2.29.924-.16 0-.317-.017-.47-.045.013.203.027.406.045.608.759-.262 1.698-.181 2.622.246zm9.051 14.061c-.092-.53-.261-1.032-.447-1.556-.548.1-1.068.206-1.57.39-.88.325-1.524.881-1.797 1.53a21.137 21.137 0 0 0 3.231 2.134c.542-.548.76-1.47.583-2.498zm8.157 1.404c-.422.36-.822.711-1.165 1.123-.602.723-.883 1.534-.789 2.233a21.285 21.285 0 0 0 3.863.227c.197-.747-.075-1.656-.745-2.459-.343-.413-.742-.764-1.164-1.124z"/><path d="M18.355 39.689c.351-.42.76-.784 1.166-1.132-.224-.192-.45-.388-.664-.597-.357-.346-.696-.907-.954-1.52-.33.33-.744.637-1.234.91-.26.146-.529.277-.795.404.302.442.602.9.832 1.396.48 1.038.522 2.095.133 2.895.199.041.4.08.6.114-.057-.8.265-1.687.916-2.47zM37.11 26.905a14.465 14.465 0 0 0-.424-.839c-.234-.42-.567-.902-.997-1.283-.399.132-.8.222-1.164.257a13.887 13.887 0 0 1-.787 2.146c.301.178.572.42.81.719.682-.068 1.359-.24 1.777-.489a13.3 13.3 0 0 0 .785-.51zM3.864 28.121c.54.093 1.058.263 1.563.442.053-.29.113-.584.186-.872.123-.482.44-1.056.84-1.587a5.609 5.609 0 0 1-1.407-.612c-.255-.153-.504-.32-.748-.485-.23.482-.477.97-.793 1.416-.66.935-1.553 1.501-2.44 1.564.064.193.13.386.2.576.666-.448 1.596-.614 2.6-.442zm20.163 10.265a14.165 14.165 0 0 1-.794-.404c-.434-.242-.908-.697-1.316-1.222a5.604 5.604 0 0 1-.956 1.199c-.214.208-.44.404-.663.597.406.348.814.712 1.165 1.133.73.878 1.046 1.887.878 2.76.203-.012.407-.026.609-.045-.261-.76-.18-1.697.246-2.621.23-.498.528-.955.831-1.397z"/><path d="M3.093 26.131c.309-.437.546-.913.784-1.414-.457-.316-.9-.61-1.388-.834-.853-.395-1.707-.456-2.359-.185a21.02 21.02 0 0 0 .778 3.79c.773-.003 1.581-.502 2.185-1.357zm4.804 8.378c.05-.534.015-1.065-.029-1.618-.554-.045-1.084-.077-1.619-.029-.933.086-1.7.456-2.13 1.012a21.39 21.39 0 0 0 2.573 2.895c.662-.392 1.11-1.224 1.205-2.26zm-2.954-3.872c.185-.503.291-1.024.391-1.57-.524-.186-1.028-.356-1.556-.447-.928-.159-1.768.003-2.327.432a21.147 21.147 0 0 0 1.74 3.458c.744-.207 1.391-.896 1.752-1.873z"/><path d="M7.828 32.38a15.469 15.469 0 0 1-.047-.89c-.007-.497.15-1.132.4-1.748a5.62 5.62 0 0 1-1.517-.23c-.287-.08-.571-.177-.849-.274-.097.525-.21 1.06-.399 1.573-.393 1.07-1.107 1.845-1.944 2.138.11.17.224.337.34.502.528-.602 1.379-1 2.39-1.092.546-.05 1.093-.02 1.626.021zm7.583 5.594c-.501.239-.977.476-1.415.785-.768.542-1.249 1.25-1.34 1.949 1.173.514 2.4.928 3.672 1.225.384-.671.357-1.621-.081-2.571-.226-.487-.52-.93-.836-1.388zm21.85-7.238c-.53.091-1.032.26-1.556.447.1.547.206 1.067.39 1.57.325.878.882 1.523 1.53 1.795a21.134 21.134 0 0 0 2.136-3.23c-.549-.542-1.472-.76-2.5-.582zm1.878-4.494c-.486.224-.93.519-1.388.834.239.502.476.977.785 1.415.542.767 1.25 1.25 1.95 1.34a20.926 20.926 0 0 0 1.224-3.67c-.67-.384-1.62-.357-2.571.081z"/><path d="M38.123 28.784c-.316-.447-.562-.934-.793-1.416-.244.167-.492.332-.748.485-.428.255-1.056.437-1.715.528a5.6 5.6 0 0 1 .559 1.427c.073.288.132.582.186.872.505-.179 1.023-.348 1.563-.442 1.125-.194 2.156.037 2.828.618.091-.181.18-.364.267-.548-.788-.155-1.56-.694-2.148-1.524zm1.343-4.65c-.42-.35-.784-.758-1.134-1.165-.191.225-.388.45-.596.664-.347.357-.908.695-1.521.953.33.331.637.744.91 1.234.147.26.277.53.405.795.441-.302.899-.602 1.395-.831 1.04-.48 2.096-.523 2.896-.133.042-.2.08-.399.115-.6a2.71 2.71 0 0 1-.181.007c-.75 0-1.564-.32-2.289-.924z"/><path d="M42.249 20.672c-.747-.195-1.657.076-2.46.746-.412.342-.763.741-1.123 1.165.36.422.712.822 1.123 1.164.724.602 1.534.882 2.234.788a21.258 21.258 0 0 0 .226-3.863zm-6.628 12.255c-.189-.513-.3-1.047-.398-1.574-.278.098-.562.194-.849.275a3.76 3.76 0 0 1-1.003.119c-.255 0-.522-.018-.79-.052.121.452.18.963.17 1.523-.003.297-.023.596-.046.89.533-.042 1.079-.072 1.624-.022 1.133.104 2.067.59 2.567 1.32.134-.15.266-.302.396-.457-.717-.353-1.32-1.07-1.67-2.022zm-5.21 4.615c-.503-.185-1.024-.29-1.57-.39-.187.523-.356 1.027-.448 1.555-.16.927.003 1.768.433 2.327a21.064 21.064 0 0 0 3.46-1.741c-.208-.743-.898-1.391-1.875-1.751zm-4.507 1.85c-.438-.309-.913-.546-1.415-.784-.316.457-.61.9-.834 1.387-.395.855-.456 1.708-.185 2.36a20.972 20.972 0 0 0 3.79-.778c-.003-.774-.5-1.582-1.356-2.185z"/><path d="M27.894 38.62c.093-.539.264-1.057.442-1.561-.29-.055-.584-.114-.872-.187-.482-.122-1.055-.438-1.586-.839a5.58 5.58 0 0 1-.614 1.406c-.152.255-.32.504-.485.748.483.23.97.477 1.417.793.934.66 1.5 1.553 1.563 2.44.194-.065.386-.131.577-.2-.448-.669-.614-1.596-.442-2.6zm4.24-2.338c-.05-.545-.02-1.09.022-1.623-.293.022-.593.041-.89.045-.498.007-1.134-.15-1.75-.401 0 .468-.076.977-.23 1.517-.08.286-.177.569-.275.848.526.097 1.061.21 1.575.4 1.07.393 1.845 1.106 2.138 1.942.17-.11.337-.224.502-.34-.603-.526-1-1.377-1.092-2.388z"/><path d="M34.284 34.59c-.534-.05-1.064-.016-1.618.028-.045.554-.077 1.084-.029 1.618.085.933.456 1.7 1.013 2.13a21.4 21.4 0 0 0 2.896-2.572c-.393-.664-1.225-1.11-2.262-1.204zM9.56 35.847c.513-.189 1.047-.301 1.574-.399a13.965 13.965 0 0 1-.275-.848c-.136-.478-.149-1.133-.065-1.794-.452.121-.963.18-1.525.172a13.394 13.394 0 0 1-.89-.047c.042.533.072 1.079.022 1.623-.104 1.134-.59 2.067-1.322 2.567.15.134.303.266.458.396.352-.718 1.071-1.32 2.023-1.67zM30.51 5.235c.091.529.26 1.032.447 1.556.547-.1 1.067-.206 1.57-.391.879-.323 1.524-.881 1.796-1.529a21.139 21.139 0 0 0-3.23-2.135c-.543.549-.76 1.471-.583 2.499zM23.906 3.03c-.35.422-.758.786-1.165 1.134.224.192.45.389.663.597.358.347.696.907.954 1.52a5.61 5.61 0 0 1 1.235-.91c.26-.146.529-.277.795-.404-.303-.442-.603-.9-.832-1.397-.48-1.038-.523-2.095-.133-2.895-.2-.041-.399-.08-.6-.114.057.8-.265 1.687-.917 2.47zm10.459 5.18c-.05.535-.016 1.065.029 1.619.554.044 1.084.077 1.619.029.933-.086 1.7-.456 2.13-1.013A21.39 21.39 0 0 0 35.57 5.95c-.663.392-1.109 1.225-1.204 2.26z"/><path d="M26.85 4.745c.502-.238.978-.475 1.416-.784.767-.542 1.248-1.25 1.34-1.949A21.047 21.047 0 0 0 25.933.787c-.384.671-.357 1.621.08 2.57.226.487.52.931.836 1.388z"/><path d="M28.558 4.373c-.447.316-.935.563-1.417.794.167.244.332.492.485.748.255.427.436 1.056.528 1.714a5.593 5.593 0 0 1 1.428-.56c.288-.073.583-.132.872-.186-.179-.504-.348-1.023-.442-1.562-.194-1.126.037-2.155.618-2.828-.181-.09-.364-.18-.547-.267-.156.79-.695 1.561-1.525 2.147zm4.144 2.5c-.513.189-1.048.3-1.574.398.097.278.194.562.275.849.135.478.148 1.133.065 1.794a5.61 5.61 0 0 1 1.525-.172c.297.004.597.023.89.047-.042-.533-.072-1.08-.022-1.624.104-1.133.59-2.066 1.321-2.566-.15-.135-.302-.266-.457-.396-.353.717-1.072 1.32-2.023 1.67zm6.467 9.715c-.309.438-.546.913-.784 1.415.457.315.9.61 1.388.834.854.395 1.708.456 2.36.185a20.96 20.96 0 0 0-.778-3.79c-.774.004-1.582.501-2.186 1.356zm-4.735-6.248c.022.293.042.592.046.89.006.497-.15 1.133-.402 1.75.468 0 .978.075 1.517.229.287.08.571.177.849.274.097-.525.21-1.06.4-1.573.393-1.07 1.106-1.845 1.943-2.138-.11-.17-.224-.337-.34-.502-.528.602-1.379 1-2.389 1.092-.545.048-1.09.018-1.624-.022z"/><path d="M37.318 12.083c-.185.503-.29 1.024-.39 1.57.523.186 1.028.355 1.555.447.927.159 1.769-.003 2.328-.433a21.043 21.043 0 0 0-1.741-3.458c-.743.207-1.39.897-1.752 1.874z"/><path d="M38.398 14.597c-.54-.092-1.059-.263-1.563-.441-.054.289-.114.583-.187.871-.12.481-.436 1.053-.836 1.583a5.68 5.68 0 0 1 1.403.617c.256.152.505.319.748.484.231-.482.477-.97.794-1.416.66-.934 1.554-1.5 2.44-1.563-.064-.193-.13-.386-.2-.578-.49.333-1.126.508-1.828.508a4.256 4.256 0 0 1-.771-.065zm-.397 7.984a16.052 16.052 0 0 0-.627-.7c-.335-.345-.779-.726-1.294-.982-.352.23-.716.422-1.06.551a13.96 13.96 0 0 1-.203 2.278c.337.094.66.256.966.484.643-.242 1.251-.583 1.59-.931.218-.223.426-.461.628-.7zM4.138 13.936c.315.446.563.934.794 1.416.242-.167.492-.332.748-.485.427-.255 1.057-.436 1.715-.528a5.587 5.587 0 0 1-.56-1.428 14.85 14.85 0 0 1-.187-.871c-.504.178-1.023.348-1.562.44a4.519 4.519 0 0 1-.77.068c-.818 0-1.544-.24-2.059-.684-.09.181-.18.363-.265.547.788.155 1.56.695 2.146 1.525z"/><path d="M5 11.984c.53-.091 1.033-.26 1.557-.447-.1-.547-.206-1.067-.391-1.57-.325-.878-.881-1.523-1.529-1.795a21.128 21.128 0 0 0-2.136 3.23c.549.541 1.47.759 2.5.582zm-1.877 4.492c.486-.224.929-.52 1.388-.834-.239-.501-.476-.977-.785-1.415-.542-.767-1.25-1.248-1.95-1.339a21.026 21.026 0 0 0-1.225 3.67c.672.384 1.622.357 2.572-.082z"/><path d="M6.639 9.792c.189.514.301 1.048.399 1.574.277-.097.561-.194.848-.275.478-.135 1.134-.148 1.794-.065a5.599 5.599 0 0 1-.173-1.524c.004-.297.024-.597.046-.89-.533.042-1.079.072-1.624.022-1.134-.104-2.067-.59-2.567-1.32-.135.149-.266.301-.396.456.72.352 1.322 1.071 1.673 2.022zm-3.843 8.793c.42.35.785.759 1.133 1.165.192-.224.389-.45.597-.663.347-.357.909-.694 1.523-.952a5.647 5.647 0 0 1-.913-1.236c-.146-.26-.276-.529-.404-.794-.442.302-.9.602-1.397.831a4.069 4.069 0 0 1-1.69.396 2.74 2.74 0 0 1-1.206-.263c-.042.2-.08.4-.116.6.802-.057 1.69.265 2.473.916zM22.353 3.83c.422-.359.822-.71 1.165-1.123.602-.723.882-1.533.788-2.233a21.268 21.268 0 0 0-3.863-.226c-.195.746.077 1.656.746 2.458.343.413.741.765 1.164 1.125zm-5.995-.502c.438.308.913.546 1.415.784.315-.457.61-.9.834-1.388.395-.853.456-1.706.185-2.358a20.97 20.97 0 0 0-3.791.778c.003.773.502 1.58 1.357 2.184z"/><path d="M18.234 4.333c.266.128.535.258.795.404.434.243.907.697 1.315 1.222.235-.405.554-.807.957-1.198.214-.209.44-.404.663-.597-.406-.348-.814-.713-1.165-1.133-.731-.879-1.046-1.887-.878-2.76a20.52 20.52 0 0 0-.609.044c.26.76.18 1.698-.246 2.622-.23.497-.53.955-.832 1.396zM14.366 4.1c-.092.539-.263 1.057-.44 1.562.289.054.583.113.871.186.483.122 1.056.438 1.587.84a5.58 5.58 0 0 1 .613-1.406c.153-.255.32-.504.485-.747-.482-.231-.97-.477-1.416-.794-.935-.66-1.5-1.552-1.564-2.439-.195.064-.386.13-.578.2.45.665.616 1.594.442 2.597zm-4.238 2.338c.05.544.02 1.09-.022 1.623.293-.022.593-.042.89-.047.498-.01 1.134.147 1.75.399 0-.468.076-.975.23-1.514.08-.287.177-.57.274-.848-.525-.098-1.06-.21-1.574-.399-1.07-.393-1.845-1.107-2.139-1.944a18.8 18.8 0 0 0-.501.34c.603.528 1 1.379 1.092 2.39z"/><path d="M7.978 8.13c.534.05 1.064.016 1.618-.029.045-.553.077-1.084.029-1.618-.086-.933-.456-1.7-1.013-2.13a21.396 21.396 0 0 0-2.896 2.573c.393.663 1.225 1.109 2.262 1.204zm20.628 12.881c.9-.348 1.35-1.054 1.35-2.118 0-.938-.44-1.664-1.322-2.177-.745-.435-1.616-.653-2.613-.653-1.093 0-2.017.203-2.772.61-.948.522-1.421 1.282-1.421 2.277 0 .542.099.97.297 1.285.198.314.54.598 1.023.85-.562.27-.967.565-1.219.884-.29.378-.435.856-.435 1.436 0 1.132.478 1.983 1.436 2.553.774.464 1.77.697 2.99.697 1.18 0 2.167-.242 2.96-.725.959-.58 1.437-1.422 1.437-2.525.001-1.15-.57-1.948-1.711-2.394zM25.92 18.11c.357 0 .654.096.892.29.237.195.355.464.355.813 0 .726-.426 1.088-1.277 1.088-.85 0-1.277-.353-1.277-1.059 0-.756.435-1.132 1.307-1.132zm.89 6.079c-.268.194-.612.29-1.035.29-.345 0-.64-.113-.883-.34a1.129 1.129 0 0 1-.366-.865c0-.89.469-1.334 1.407-1.334.412 0 .74.116.984.348.244.232.366.556.366.972 0 .407-.157.717-.473.929zm91.214-8.485v-2.01c1.435-.226 2.151-.952 2.151-2.174 0-1.229-.717-1.898-2.151-2.012V7.563h.07c3.121 0 4.681 1.069 4.681 3.201 0 1.691-.891 2.87-2.669 3.535v.152c.685.192 1.288.727 1.802 1.608.519.88 1.215 2.491 2.092 4.836h-3.017c-.79-2.403-1.396-3.89-1.817-4.453-.272-.363-.653-.61-1.142-.739zm0-8.14v1.944a8.823 8.823 0 0 0-2.151.125c.073 1.05.111 2.425.111 4.116.372.014.689.021.95.021.4 0 .763-.026 1.089-.077v2.01a3.517 3.517 0 0 0-.898-.106c-.393 0-.773.004-1.131.006 0 1.747.031 3.511.09 5.292h-2.833c.087-2.053.132-4.367.132-6.941 0-2.474-.045-4.586-.132-6.33h1.764c.202 0 .63-.01 1.277-.03a65.407 65.407 0 0 1 1.732-.03zm-12.438 27.719v-1.717c.321.123.688.186 1.101.186.905 0 1.577-.334 2.012-1.006.436-.668.651-1.479.651-2.432 0-.856-.213-1.594-.644-2.21-.427-.619-1.017-.929-1.771-.929-.531 0-.98.087-1.349.263v-1.666c.618-.327 1.362-.491 2.236-.491 1.305 0 2.336.469 3.098 1.412.763.94 1.142 2.06 1.142 3.357 0 1.475-.421 2.77-1.263 3.883-.842 1.117-1.994 1.674-3.456 1.674-.747 0-1.331-.108-1.757-.324zm0-19.58v-2.008c1.435-.227 2.15-.953 2.15-2.175 0-1.229-.716-1.898-2.15-2.012V7.563h.069c3.121 0 4.681 1.069 4.681 3.201 0 1.691-.891 2.87-2.669 3.535v.152c.686.192 1.288.727 1.803 1.608.518.88 1.214 2.491 2.091 4.836h-3.017c-.789-2.403-1.395-3.89-1.816-4.453-.274-.363-.653-.61-1.142-.739zm0-8.14v1.945a8.84 8.84 0 0 0-2.152.125c.073 1.05.111 2.425.111 4.116.373.014.689.021.95.021.4 0 .764-.026 1.09-.077v2.01a3.528 3.528 0 0 0-.898-.106c-.394 0-.773.004-1.132.006 0 1.747.032 3.511.09 5.292h-2.833c.087-2.053.133-4.367.133-6.941 0-2.474-.046-4.586-.133-6.33h1.765c.202 0 .629-.01 1.277-.03.625-.02 1.2-.03 1.732-.03zm0 18.209v1.668a1.972 1.972 0 0 0-.712.561c.101 1.91.153 3.66.153 5.25.167.13.353.236.559.316v1.716a1.608 1.608 0 0 1-.489-.369h-.121c0 1.663.025 3.351.073 5.055h-2.773c.121-1.952.185-4.199.185-6.75 0-3.288-.178-5.796-.533-7.523l2.61-.285.154.877h.163c.217-.202.462-.374.731-.516zm-13.52 9.276v-9.39l1.448-.05a44.893 44.893 0 0 0-.16 3.709c0 1.666.12 2.787.368 3.364.25.577.738.866 1.465.866.794 0 1.483-.191 2.06-.57 0-3.574-.041-6.002-.122-7.28l2.752-.09c-.069 1.284-.104 2.952-.104 4.993 0 1.517.094 3.083.275 4.701l-2.383.083c-.109-.368-.165-.66-.165-.876h-.163c-.891.73-1.931 1.1-3.118 1.1-.894 0-1.61-.188-2.152-.56zm0-13.788v-2.24h.11c.99 0 1.833-.445 2.529-1.339.693-.894 1.037-2.018 1.037-3.372 0-1.42-.362-2.571-1.09-3.455-.703-.854-1.566-1.296-2.585-1.323V7.322l.17-.002c1.793 0 3.297.626 4.507 1.885 1.209 1.256 1.813 2.86 1.813 4.809 0 2.087-.64 3.817-1.917 5.19-1.24 1.332-2.763 2.016-4.573 2.056zm0-13.938v2.209c-.034-.002-.068-.002-.103-.002-.996 0-1.838.446-2.531 1.336-.692.89-1.04 2.014-1.04 3.374 0 1.412.365 2.564 1.096 3.451.706.854 1.565 1.298 2.579 1.328v2.24c-.056.002-.11.002-.167.002-1.796 0-3.296-.63-4.507-1.889-1.21-1.26-1.813-2.864-1.813-4.805 0-2.087.638-3.816 1.915-5.19 1.24-1.33 2.764-2.013 4.572-2.054zm0 18.337v9.39a2.44 2.44 0 0 1-.38-.323c-.57-.587-.852-1.764-.852-3.524 0-.208.004-.504.014-.887.01-.38.017-.714.017-.998 0-.752-.066-1.956-.195-3.608l1.397-.05zM83.97 35.705V33.83H84c.722 0 1.307-.312 1.759-.935.452-.627.679-1.41.679-2.345 0-.985-.233-1.813-.692-2.485-.456-.658-1.048-.992-1.775-1.002v-1.882l.191-.003c1.355 0 2.517.442 3.484 1.329.967.887 1.452 2.133 1.452 3.737 0 1.712-.525 3.05-1.58 4.015-1.01.928-2.194 1.408-3.548 1.445zm0-10.522v1.883h-.032c-.72 0-1.304.312-1.758.935-.452.627-.679 1.41-.679 2.345 0 .985.23 1.812.692 2.485.456.658 1.048.993 1.775 1.002v1.873a7.712 7.712 0 0 1-.173.003c-1.36 0-2.527-.438-3.498-1.319-.971-.88-1.459-2.118-1.459-3.715 0-1.719.534-3.066 1.59-4.037 1.016-.927 2.195-1.413 3.542-1.455zm-5.867-4.263v-2.165c.781-.206 1.401-.606 1.863-1.195.702-.908 1.054-2.014 1.054-3.32 0-1.305-.383-2.403-1.141-3.299-.451-.528-1.043-.901-1.776-1.116V7.627c1.795.185 3.143.775 4.04 1.77 1.107 1.225 1.661 2.694 1.661 4.406 0 1.93-.619 3.615-1.858 5.055-.973 1.133-2.254 1.821-3.843 2.062zm0-13.293v2.198a6.062 6.062 0 0 0-1.712-.223c-.292 0-.696.031-1.204.09.066 1.36.1 2.78.1 4.262 0 1.624.035 3.236.104 4.832a6.77 6.77 0 0 0 1.323.133c.508 0 .971-.055 1.388-.166v2.166c-.43.065-.882.098-1.358.098-1.006 0-2.391-.042-4.159-.122.088-2.053.133-4.367.133-6.941 0-2.474-.045-4.586-.133-6.33h1.786c.292 0 .727-.01 1.306-.03.577-.022.954-.032 1.131-.032.456.001.888.023 1.295.065zM64.441 35.572v-2.1c.246.035.504.053.773.053.386 0 .835-.038 1.346-.12a16.95 16.95 0 0 1-.154-2.224c0-.73-.073-1.558-.216-2.474h2.886a63.373 63.373 0 0 0-.08 3.16c0 .766.028 1.799.08 3.097-1.615.416-2.97.622-4.059.622a12 12 0 0 1-.576-.014zm0-11.407v-2.27c.29-.025.588-.037.894-.037 1.096 0 2.06.098 2.896.296l-.334 2.404c-1.068-.28-2.025-.417-2.879-.417a5.153 5.153 0 0 0-.577.025zm0-7.082v-1.945h1.857c-1.162-3.507-1.743-5.403-1.743-5.688h-.114V7.626h2.254c0 .385.716 2.603 2.154 6.648 1.441 4.047 2.158 6.257 2.158 6.621h-3.26c0-.45-.31-1.718-.93-3.813h-2.376v.001zm13.511 8.546l-.591 2.383a4.085 4.085 0 0 0-1.532-.307c-.998 0-1.656.449-1.977 1.346 0 2.71.021 4.799.063 6.26H71.2c.119-2.046.173-3.717.173-5.014 0-1.618-.17-3.152-.508-4.6l2.6-.285c.115.748.175 1.187.175 1.315h.16c.627-.956 1.458-1.437 2.498-1.437.492.001 1.042.112 1.654.339zm-20.098-4.732H54.52c0-.313-.574-1.39-1.722-3.233-1.226-1.962-2.092-2.943-2.6-2.943h-.307c0 1.548.038 3.608.111 6.176h-2.875c.087-2.054.132-4.367.132-6.942 0-2.474-.046-4.586-.132-6.33h2.875c-.073 1.883-.11 3.647-.11 5.3h.222c.3 0 1.054-.836 2.267-2.509 1.176-1.624 1.764-2.553 1.764-2.79h3.038c0 .223-.623 1.068-1.869 2.536-1.283 1.517-2.22 2.481-2.812 2.895v.154c.692.362 1.785 1.702 3.271 4.026 1.39 2.16 2.081 3.38 2.081 3.66zm6.587-13.271v1.822h-.05c0 .265-.603 2.16-1.807 5.689h1.857v1.945h-2.337c-.637 2.06-.956 3.33-.956 3.813h-3.07c0-.264.794-2.439 2.382-6.523 1.587-4.085 2.38-6.332 2.38-6.746h1.601zm0 14.267v2.271c-1.147.106-2.023.538-2.631 1.293-.71.88-1.061 1.955-1.061 3.228 0 1.298.396 2.429 1.187 3.393.64.78 1.475 1.244 2.506 1.394v2.1c-2.052-.099-3.633-.735-4.737-1.907-1.208-1.281-1.81-2.837-1.81-4.662 0-1.924.658-3.597 1.97-5.017 1.142-1.233 2.668-1.93 4.576-2.093z"/></g><defs><clipPath id="a"><path fill="#fff" transform="translate(0 .236)" d="M0 0h124v42.248H0z"/></clipPath></defs></svg>