<svg width="1545" height="463" viewBox="0 0 1545 463" fill="none" xmlns="http://www.w3.org/2000/svg"><path fill-rule="evenodd" clip-rule="evenodd" d="M58.742 457.616H-16V0h74.742v281.208l81.256-101.751h89.359L122.805 309.604l117.743 148.012h-88.617L58.742 338.709v118.907zm-4.484-131.901V453.13h-65.773V4.486h65.773v289.525l87.897-110.067h77.732l-102.846 125.62L231.248 453.13h-77.134L54.258 325.715zm434.865 79.859v50.329l-2.479 1.24c-3.157 1.579-7.584 2.384-11.759 2.84-4.328.472-8.987.624-12.968.624-25.336 0-44.294-10.577-55.342-27.208C386.508 452.079 360.263 463 333.36 463c-26.577 0-47.38-9.733-61.514-24.991-14.079-15.199-21.301-35.617-21.301-56.662 0-31.383 15.946-55.134 40.405-70.847 24.312-15.62 57.065-23.368 91.441-23.368 5.718 0 10.059.238 13.454.573v-14.631c0-8.223-3.066-17.282-9.498-24.248-6.35-6.877-16.192-11.942-30.265-11.942-8.645 0-18.418 1.964-27.404 5.389-9.019 3.437-16.889 8.208-21.964 13.553l-3.169 3.337-41.743-41.761 3.252-3.172c24.648-24.042 57.428-40.156 97.007-40.156 33.873 0 61.195 10.954 80.081 28.981 18.882 18.024 29.043 42.853 29.043 70.019v116.648c0 5.444 1.548 9.377 3.792 11.89 2.201 2.464 5.42 3.962 9.662 3.962h4.484zm-88.794-112.759a72.255 72.255 0 0 0-4.484-.601c-3.294-.342-7.613-.596-13.454-.596-67.567 0-127.361 30.508-127.361 89.729 0 40.079 27.505 77.167 78.33 77.167 25.993 0 51.452-10.685 70.826-29.024a109.09 109.09 0 0 0 3.318-3.279 57.115 57.115 0 0 0 2.352 4.009c10.095 15.696 27.763 25.901 52.061 25.901 7.773 0 17.938-.598 22.722-2.991v-43.07c-10.763 0-17.938-7.776-17.938-20.338V273.074c0-52.042-38.867-94.514-104.64-94.514-36.555 0-67.109 14.192-90.618 35.797a148.393 148.393 0 0 0-3.258 3.086l35.278 35.293c.459-.483.936-.961 1.431-1.432 11.759-11.195 33.4-18.907 51.188-18.907 30.495 0 44.247 22.133 44.247 40.677v19.741zm-67.971 98.541c4.436 4.931 11.69 8.834 23.126 8.834 12.469 0 29.443-4.781 40.361-16.925v-43.279c-2.625-.537-5.491-.812-9.866-.812-17.081 0-32.394 3.632-43.27 9.939-10.824 6.276-16.823 14.874-16.823 25.056 0 5.64 1.937 12.146 6.472 17.187zm67.971-54.873c-4.185-1.197-7.773-1.795-14.35-1.795-35.279 0-64.578 14.955-64.578 39.481 0 13.16 8.969 30.507 34.083 30.507 13.752 0 32.886-5.383 44.845-19.74v-48.453zM790.13 457.616h-74.743v-14.944C695.664 455.65 672.189 463 646.325 463c-38.865 0-71.502-14.692-94.38-40.305-22.838-25.567-35.672-61.691-35.672-104.158 0-42.58 14.102-78.756 39.1-104.307 25.006-25.561 60.592-40.156 102.911-40.156 20.685 0 40.016 3.86 57.103 11.216V0h74.743v457.616zm-70.258-265.298a119.664 119.664 0 0 0-4.485-2.127c-16.907-7.6-36.249-11.631-57.103-11.631-82.516 0-137.526 56.828-137.526 139.977 0 83.148 50.227 139.977 125.567 139.977 26.071 0 49.569-7.723 69.062-21.256a120.533 120.533 0 0 0 4.485-3.27v19.142h65.773V4.486h-65.773v187.832zm-106.591 70.431c-12.422 13.335-19.873 32.527-19.873 55.788 0 23.261 7.451 42.453 19.873 55.788 12.401 13.313 30.02 21.079 50.982 21.079 21.621 0 39.547-6.962 51.124-18.83V258.893c-11.652-10.333-29.627-17.224-51.124-17.224-20.962 0-38.581 7.767-50.982 21.08zm106.591-5.826c-12.557-11.964-32.289-19.74-55.609-19.74-44.247 0-75.34 32.9-75.34 81.354 0 48.453 31.093 81.354 75.34 81.354 23.32 0 43.052-7.777 55.609-21.535V256.923zm159.884 165.974c-25.834-25.535-40.572-61.724-40.572-104.36 0-42.637 14.738-78.826 40.572-104.361 25.831-25.531 62.441-40.102 105.624-40.102 43.18 0 79.79 14.571 105.62 40.102 25.84 25.535 40.58 61.724 40.58 104.361 0 42.636-14.74 78.825-40.58 104.36C1065.17 448.428 1028.56 463 985.38 463c-43.183 0-79.793-14.572-105.624-40.103zm55.806-160.195c-12.062 13.322-19.244 32.526-19.244 55.835 0 23.309 7.182 42.512 19.244 55.835 12.029 13.287 29.182 21.032 49.818 21.032 20.64 0 37.79-7.745 49.82-21.032 12.06-13.323 19.24-32.526 19.24-55.835 0-23.309-7.18-42.513-19.24-55.835-12.03-13.287-29.18-21.033-49.82-21.033-20.636 0-37.789 7.746-49.818 21.033zm392.588-25.652c-5.47-1.297-11.44-1.662-17.04-1.662-25.71 0-47.23 13.759-60.39 34.097V453.13h-65.77V183.944h65.77v27.517c1.47-1.568 2.97-3.087 4.48-4.555 17.59-17.011 38.13-27.15 60.7-27.15 5.1 0 9.34.437 14.19.937.83.085 1.68.173 2.55.26v57.426a40.871 40.871 0 0 0-4.49-1.329zm-72.95-36.288v-21.305h-74.74v278.159h74.74V270.83c12.5-18.63 32.38-30.955 55.91-30.955 7.02 0 14.16.599 20 2.721l6.01 2.188v-67.891l-4.04-.404c-.84-.085-1.68-.171-2.5-.256-4.85-.501-9.33-.963-14.68-.963-22.66 0-43.17 9.622-60.7 25.492zm280.83 36.288c-5.48-1.297-11.44-1.662-17.04-1.662-25.71 0-47.24 13.759-60.39 34.097V453.13h-65.78V183.944h65.78v27.517c1.47-1.568 2.97-3.087 4.48-4.555 17.58-17.011 38.13-27.15 60.69-27.15 5.11 0 9.34.437 14.2.937.83.085 1.67.173 2.55.26v57.426a40.871 40.871 0 0 0-4.49-1.329zm-72.95-36.288v-21.305h-74.74v278.159h74.74V270.83c12.5-18.63 32.38-30.955 55.91-30.955 7.02 0 14.16.599 19.99 2.721l6.02 2.188v-67.891l-4.04-.404c-.85-.085-1.68-.171-2.5-.256-4.85-.501-9.33-.963-14.69-.963-22.66 0-43.16 9.622-60.69 25.492zm-477.7 257.752c-84.309 0-141.711-56.829-141.711-139.977 0-83.149 57.402-139.977 141.711-139.977 84.31 0 141.71 56.828 141.71 139.977 0 83.148-57.4 139.977-141.71 139.977zm0-221.331c-43.649 0-73.546 32.9-73.546 81.354 0 48.453 29.897 81.354 73.546 81.354 43.65 0 73.55-32.901 73.55-81.354 0-48.454-29.9-81.354-73.55-81.354z" fill="#fff"/></svg>