<svg width="13" height="13" viewBox="0 0 13 13" fill="none" xmlns="http://www.w3.org/2000/svg"><g clip-path="url(#a)"><path d="M11.201 9.048c-.785-.672-1.582-1.079-2.358-.408l-.463.405c-.339.295-.97 1.67-3.405-1.133-2.436-2.799-.986-3.235-.647-3.526l.466-.406c.771-.672.48-1.519-.076-2.39l-.336-.527C3.822.193 3.214-.377 2.44.294L2.022.66a3.924 3.924 0 0 0-1.53 2.597c-.278 1.846.602 3.96 2.618 6.278C5.124 11.854 7.096 13.02 8.964 13a3.934 3.934 0 0 0 2.784-1.152l.42-.366c.77-.67.291-1.354-.495-2.027l-.472-.406z" fill="#5016FF"/></g><defs><clipPath id="a"><path fill="#fff" d="M0 0h13v13H0z"/></clipPath></defs></svg>